<svg xmlns="http://www.w3.org/2000/svg" xmlns:xlink="http://www.w3.org/1999/xlink" width="500" zoomAndPan="magnify" viewBox="0 0 375 374.999991" height="500" preserveAspectRatio="xMidYMid meet" version="1.0"><defs><g/></defs><g fill="#000000" fill-opacity="1"><g transform="translate(30.786565, 171.796321)"><g><path d="M 46.40625 -81.265625 C 54.875 -81.265625 62.820312 -79.097656 70.25 -74.765625 L 59.53125 -58.796875 C 55.820312 -62.296875 51.550781 -64.046875 46.71875 -64.046875 C 44.195312 -64.046875 41.90625 -63.328125 39.84375 -61.890625 C 37.78125 -60.460938 36.75 -58.695312 36.75 -56.59375 C 36.75 -55.050781 37.484375 -53.703125 38.953125 -52.546875 C 40.421875 -51.390625 43.117188 -50.253906 47.046875 -49.140625 C 52.359375 -47.523438 56.203125 -45.960938 58.578125 -44.453125 C 60.960938 -42.953125 62.820312 -41.097656 64.15625 -38.890625 C 65.488281 -36.691406 66.15625 -33.945312 66.15625 -30.65625 C 66.15625 -25.894531 64.925781 -20.851562 62.46875 -15.53125 C 60.019531 -10.21875 56.015625 -5.984375 50.453125 -2.828125 C 44.890625 0.316406 38.289062 1.957031 30.65625 2.09375 C 20.851562 2.09375 12.035156 -0.914062 4.203125 -6.9375 L 15.640625 -23.515625 C 21.097656 -18.054688 26.734375 -15.328125 32.546875 -15.328125 C 35.765625 -15.328125 38.476562 -16.164062 40.6875 -17.84375 C 42.894531 -19.53125 44 -21.664062 44 -24.25 C 44 -27.613281 40.640625 -30.207031 33.921875 -32.03125 C 25.796875 -34.269531 20.539062 -36.664062 18.15625 -39.21875 C 15.78125 -41.769531 14.59375 -45.179688 14.59375 -49.453125 C 14.59375 -58.410156 17.65625 -65.953125 23.78125 -72.078125 C 29.90625 -78.203125 37.445312 -81.265625 46.40625 -81.265625 Z M 46.40625 -81.265625 "/></g></g></g><g fill="#000000" fill-opacity="1"><g transform="translate(84.231615, 171.796321)"><g><path d="M 97.328125 -47.25 C 97.328125 -39.625 95.125 -31.710938 90.71875 -23.515625 C 86.3125 -15.328125 80.082031 -8.921875 72.03125 -4.296875 C 63.976562 0.316406 55.332031 2.625 46.09375 2.625 C 34.96875 2.625 25.9375 -0.644531 19 -7.1875 C 12.070312 -13.738281 8.609375 -22.367188 8.609375 -33.078125 C 8.609375 -41.898438 10.9375 -50.035156 15.59375 -57.484375 C 20.25 -64.941406 26.582031 -70.859375 34.59375 -75.234375 C 42.613281 -79.609375 50.894531 -81.796875 59.4375 -81.796875 C 66.21875 -81.796875 72.566406 -80.320312 78.484375 -77.375 C 84.398438 -74.4375 89.019531 -70.359375 92.34375 -65.140625 C 95.664062 -59.929688 97.328125 -53.96875 97.328125 -47.25 Z M 49.25 -17.328125 C 54.007812 -17.328125 58.398438 -18.640625 62.421875 -21.265625 C 66.441406 -23.890625 69.640625 -27.28125 72.015625 -31.4375 C 74.398438 -35.601562 75.59375 -39.71875 75.59375 -43.78125 C 75.59375 -48.820312 73.6875 -53.09375 69.875 -56.59375 C 66.0625 -60.09375 61.492188 -61.84375 56.171875 -61.84375 C 52.046875 -61.84375 47.953125 -60.722656 43.890625 -58.484375 C 39.828125 -56.242188 36.550781 -53.234375 34.0625 -49.453125 C 31.582031 -45.671875 30.34375 -41.472656 30.34375 -36.859375 C 30.34375 -31.179688 32.109375 -26.503906 35.640625 -22.828125 C 39.179688 -19.160156 43.71875 -17.328125 49.25 -17.328125 Z M 49.25 -17.328125 "/></g></g></g><g fill="#000000" fill-opacity="1"><g transform="translate(166.236687, 171.796321)"><g><path d="M 49.03125 -79.171875 C 55.40625 -79.171875 60.375 -77.890625 63.9375 -75.328125 C 67.507812 -72.773438 69.296875 -68.910156 69.296875 -63.734375 C 69.296875 -53.304688 65.410156 -46.203125 57.640625 -42.421875 L 57.640625 -42.203125 C 66.535156 -41.015625 70.984375 -35.941406 70.984375 -26.984375 C 70.984375 -18.515625 68.09375 -11.898438 62.3125 -7.140625 C 56.539062 -2.378906 48.753906 0 38.953125 0 L 6.71875 0 L 19.21875 -79.171875 Z M 37.375 -63.421875 L 34.96875 -48.09375 L 37.6875 -48.09375 C 45.675781 -48.09375 49.671875 -51.207031 49.671875 -57.4375 C 49.671875 -59.46875 48.898438 -60.972656 47.359375 -61.953125 C 45.816406 -62.929688 43.191406 -63.421875 39.484375 -63.421875 Z M 29.8125 -15.75 L 34.4375 -15.75 C 40.25 -15.75 44.34375 -16.625 46.71875 -18.375 C 49.101562 -20.125 50.296875 -22.570312 50.296875 -25.71875 C 50.296875 -28.238281 49.382812 -30.039062 47.5625 -31.125 C 45.738281 -32.21875 42.625 -32.765625 38.21875 -32.765625 L 32.4375 -32.765625 Z M 29.8125 -15.75 "/></g></g></g><g fill="#000000" fill-opacity="1"><g transform="translate(226.191742, 171.796321)"><g><path d="M 64.265625 -79.171875 L 61.53125 -61.734375 L 37.0625 -61.734375 L 34.96875 -48.515625 L 58.171875 -48.515625 L 55.4375 -31.078125 L 32.234375 -31.078125 L 30.03125 -17.4375 L 54.5 -17.4375 L 51.765625 0 L 6.71875 0 L 19.21875 -79.171875 Z M 64.265625 -79.171875 "/></g></g></g><g fill="#000000" fill-opacity="1"><g transform="translate(272.811788, 171.796321)"><g><path d="M 50.5 -79.171875 C 57.644531 -79.171875 63.367188 -77.488281 67.671875 -74.125 C 71.972656 -70.769531 74.125 -65.941406 74.125 -59.640625 C 74.125 -52.921875 72.128906 -46.988281 68.140625 -41.84375 C 64.148438 -36.695312 59.039062 -33.5625 52.8125 -32.4375 L 72.5625 0 L 46.9375 0 L 32.34375 -30.453125 L 32.125 -30.453125 L 27.296875 0 L 6.71875 0 L 19.21875 -79.171875 Z M 34.234375 -43.6875 L 37.0625 -43.6875 C 41.894531 -43.6875 45.640625 -44.695312 48.296875 -46.71875 C 50.960938 -48.75 52.296875 -51.726562 52.296875 -55.65625 C 52.296875 -60.832031 48.023438 -63.421875 39.484375 -63.421875 L 37.375 -63.421875 Z M 34.234375 -43.6875 "/></g></g></g><g fill="#000000" fill-opacity="1"><g transform="translate(10.518988, 261.816969)"><g><path d="M 51.234375 -79.171875 C 58.867188 -79.171875 64.890625 -77.453125 69.296875 -74.015625 C 73.710938 -70.585938 75.921875 -65.550781 75.921875 -58.90625 C 75.921875 -53.65625 74.765625 -48.265625 72.453125 -42.734375 C 70.140625 -37.203125 66.390625 -33.035156 61.203125 -30.234375 C 56.023438 -27.441406 50.21875 -26.113281 43.78125 -26.25 L 31.5 -26.25 L 27.296875 0 L 6.71875 0 L 19.21875 -79.171875 Z M 37.171875 -62.578125 L 34.125 -42.84375 L 39.171875 -42.84375 C 44.972656 -42.84375 48.90625 -43.890625 50.96875 -45.984375 C 53.039062 -48.085938 54.078125 -51.238281 54.078125 -55.4375 C 54.078125 -58.03125 53.21875 -59.867188 51.5 -60.953125 C 49.789062 -62.035156 47.046875 -62.578125 43.265625 -62.578125 Z M 37.171875 -62.578125 "/></g></g></g><g fill="#000000" fill-opacity="1"><g transform="translate(68.794039, 261.816969)"><g><path d="M 97.328125 -47.25 C 97.328125 -39.625 95.125 -31.710938 90.71875 -23.515625 C 86.3125 -15.328125 80.082031 -8.921875 72.03125 -4.296875 C 63.976562 0.316406 55.332031 2.625 46.09375 2.625 C 34.96875 2.625 25.9375 -0.644531 19 -7.1875 C 12.070312 -13.738281 8.609375 -22.367188 8.609375 -33.078125 C 8.609375 -41.898438 10.9375 -50.035156 15.59375 -57.484375 C 20.25 -64.941406 26.582031 -70.859375 34.59375 -75.234375 C 42.613281 -79.609375 50.894531 -81.796875 59.4375 -81.796875 C 66.21875 -81.796875 72.566406 -80.320312 78.484375 -77.375 C 84.398438 -74.4375 89.019531 -70.359375 92.34375 -65.140625 C 95.664062 -59.929688 97.328125 -53.96875 97.328125 -47.25 Z M 49.25 -17.328125 C 54.007812 -17.328125 58.398438 -18.640625 62.421875 -21.265625 C 66.441406 -23.890625 69.640625 -27.28125 72.015625 -31.4375 C 74.398438 -35.601562 75.59375 -39.71875 75.59375 -43.78125 C 75.59375 -48.820312 73.6875 -53.09375 69.875 -56.59375 C 66.0625 -60.09375 61.492188 -61.84375 56.171875 -61.84375 C 52.046875 -61.84375 47.953125 -60.722656 43.890625 -58.484375 C 39.828125 -56.242188 36.550781 -53.234375 34.0625 -49.453125 C 31.582031 -45.671875 30.34375 -41.472656 30.34375 -36.859375 C 30.34375 -31.179688 32.109375 -26.503906 35.640625 -22.828125 C 39.179688 -19.160156 43.71875 -17.328125 49.25 -17.328125 Z M 49.25 -17.328125 "/></g></g></g><g fill="#000000" fill-opacity="1"><g transform="translate(150.799111, 261.816969)"><g><path d="M 39.796875 -79.171875 L 27.296875 0 L 6.71875 0 L 19.21875 -79.171875 Z M 39.796875 -79.171875 "/></g></g></g><g fill="#000000" fill-opacity="1"><g transform="translate(173.689136, 261.816969)"><g><path d="M 39.796875 -79.171875 L 69.828125 -30.765625 L 70.03125 -30.765625 L 77.703125 -79.171875 L 98.28125 -79.171875 L 85.78125 0 L 65.203125 0 L 35.171875 -48.515625 L 34.96875 -48.515625 L 27.296875 0 L 6.71875 0 L 19.21875 -79.171875 Z M 39.796875 -79.171875 "/></g></g></g><g fill="#000000" fill-opacity="1"><g transform="translate(255.064199, 261.816969)"><g><path d="M 67.71875 -79.171875 L 65 -61.734375 L 47.984375 -61.734375 L 38.21875 0 L 17.640625 0 L 27.40625 -61.734375 L 10.390625 -61.734375 L 13.125 -79.171875 Z M 67.71875 -79.171875 "/></g></g></g><g fill="#000000" fill-opacity="1"><g transform="translate(299.899242, 261.816969)"><g><path d="M 46.40625 -81.265625 C 54.875 -81.265625 62.820312 -79.097656 70.25 -74.765625 L 59.53125 -58.796875 C 55.820312 -62.296875 51.550781 -64.046875 46.71875 -64.046875 C 44.195312 -64.046875 41.90625 -63.328125 39.84375 -61.890625 C 37.78125 -60.460938 36.75 -58.695312 36.75 -56.59375 C 36.75 -55.050781 37.484375 -53.703125 38.953125 -52.546875 C 40.421875 -51.390625 43.117188 -50.253906 47.046875 -49.140625 C 52.359375 -47.523438 56.203125 -45.960938 58.578125 -44.453125 C 60.960938 -42.953125 62.820312 -41.097656 64.15625 -38.890625 C 65.488281 -36.691406 66.15625 -33.945312 66.15625 -30.65625 C 66.15625 -25.894531 64.925781 -20.851562 62.46875 -15.53125 C 60.019531 -10.21875 56.015625 -5.984375 50.453125 -2.828125 C 44.890625 0.316406 38.289062 1.957031 30.65625 2.09375 C 20.851562 2.09375 12.035156 -0.914062 4.203125 -6.9375 L 15.640625 -23.515625 C 21.097656 -18.054688 26.734375 -15.328125 32.546875 -15.328125 C 35.765625 -15.328125 38.476562 -16.164062 40.6875 -17.84375 C 42.894531 -19.53125 44 -21.664062 44 -24.25 C 44 -27.613281 40.640625 -30.207031 33.921875 -32.03125 C 25.796875 -34.269531 20.539062 -36.664062 18.15625 -39.21875 C 15.78125 -41.769531 14.59375 -45.179688 14.59375 -49.453125 C 14.59375 -58.410156 17.65625 -65.953125 23.78125 -72.078125 C 29.90625 -78.203125 37.445312 -81.265625 46.40625 -81.265625 Z M 46.40625 -81.265625 "/></g></g></g></svg>